# Blender v2.76 (sub 0) OBJ File: ''
# www.blender.org
o Cube.002
v 0.809585 -0.749069 0.809585
v -0.809585 -0.749069 0.809585
v -0.809585 -0.749069 -0.809585
v -0.532016 2.489270 -0.532016
v -0.532016 2.489270 0.532016
v 0.532015 2.489270 0.532016
v 0.532016 2.489270 -0.532016
v 0.809585 -0.749069 -0.809585
vn 0.000000 -1.000000 0.000000
vn 0.000000 1.000000 0.000000
vn 0.996300 0.085400 0.000000
vn 0.000000 0.085400 0.996300
vn -0.996300 0.085400 0.000000
vn 0.000000 0.085400 -0.996300
s 1
f 1//1 2//1 3//1
f 4//2 5//2 6//2
f 7//3 6//3 1//3
f 1//4 6//4 5//4
f 2//5 5//5 4//5
f 8//6 3//6 4//6
f 8//1 1//1 3//1
f 7//2 4//2 6//2
f 8//3 7//3 1//3
f 2//4 1//4 5//4
f 3//5 2//5 4//5
f 7//6 8//6 4//6
