# Blender v2.76 (sub 0) OBJ File: 'Towers.blend'
# www.blender.org
o Cube.004
v 0.476917 -0.010389 0.476917
v -0.476917 -0.010389 0.476917
v -0.476917 -0.010389 -0.476917
v -0.313404 1.466400 -0.313404
v -0.313404 1.466400 0.313404
v 0.313404 1.466400 0.313404
v 0.313404 1.466400 -0.313404
v 0.476917 -0.010389 -0.476917
vt 0.445150 0.931519
vt 0.459050 0.931519
vt 0.459050 0.945420
vn 0.000000 -1.000000 -0.000000
vn 0.000000 1.000000 0.000000
vn 0.993900 0.110000 0.000000
vn 0.000000 0.110000 0.993900
vn -0.993900 0.110000 0.000000
vn 0.000000 0.110000 -0.993900
s 1
f 1/1/1 2/2/1 3/3/1
f 4/1/2 5/2/2 6/3/2
f 7/1/3 6/2/3 1/3/3
f 1/1/4 6/2/4 5/3/4
f 2/1/5 5/2/5 4/3/5
f 8/1/6 3/2/6 4/3/6
f 8/1/1 1/2/1 3/3/1
f 7/1/2 4/2/2 6/3/2
f 8/1/3 7/2/3 1/3/3
f 2/1/4 1/2/4 5/3/4
f 3/1/5 2/2/5 4/3/5
f 7/1/6 8/2/6 4/3/6
