# Blender v2.76 (sub 0) OBJ File: ''
# www.blender.org
o Cube
v 0.809585 -1.215840 -0.809585
v 0.809585 -1.215840 0.809585
v -0.809585 -1.215840 0.809585
v -0.809585 -1.215840 -0.809585
v 0.532016 2.022499 -0.532016
v 0.532015 2.022499 0.532016
v -0.532016 2.022499 0.532016
v -0.532016 2.022499 -0.532016
vn 0.000000 -1.000000 0.000000
vn 0.000000 1.000000 0.000000
vn 0.996300 0.085400 0.000000
vn -0.000000 0.085400 0.996300
vn -0.996300 0.085400 -0.000000
vn 0.000000 0.085400 -0.996300
s off
f 2//1 3//1 4//1
f 8//2 7//2 6//2
f 5//3 6//3 2//3
f 2//4 6//4 7//4
f 3//5 7//5 8//5
f 1//6 4//6 8//6
f 1//1 2//1 4//1
f 5//2 8//2 6//2
f 1//3 5//3 2//3
f 3//4 2//4 7//4
f 4//5 3//5 8//5
f 5//6 1//6 8//6
