# Blender v2.76 (sub 0) OBJ File: ''
# www.blender.org
o Cube.001
v 0.000000 2.220275 -1.261636
v 0.000000 2.220275 0.697695
v 0.083604 2.203645 -1.261636
v 0.083604 2.203645 0.697695
v 0.154481 2.156287 -1.261636
v 0.154481 2.156287 0.697695
v 0.201839 2.085410 -1.261636
v 0.201839 2.085410 0.697695
v 0.218469 2.001806 -1.261636
v 0.218469 2.001806 0.697695
v 0.201839 1.918201 -1.261636
v 0.201839 1.918202 0.697695
v 0.154481 1.847325 -1.261636
v 0.154481 1.847325 0.697695
v 0.083604 1.799967 -1.261636
v 0.083604 1.799967 0.697695
v 0.000000 1.783337 -1.261636
v 0.000000 1.783337 0.697695
v -0.083604 1.799967 -1.261636
v -0.083604 1.799967 0.697695
v -0.154481 1.847325 -1.261636
v -0.154481 1.847325 0.697695
v -0.201839 1.918201 -1.261636
v -0.201839 1.918202 0.697695
v -0.218469 2.001806 -1.261636
v -0.218469 2.001806 0.697695
v -0.201839 2.085410 -1.261636
v -0.201839 2.085410 0.697695
v -0.154481 2.156287 -1.261636
v -0.154481 2.156287 0.697695
v -0.083604 2.203645 -1.261636
v -0.083604 2.203645 0.697695
v -1.112676 1.343765 1.117599
v -0.767011 2.643651 0.770405
v -1.112676 1.343765 -1.117599
v -0.767011 2.643651 -0.770405
v 1.112676 1.343765 1.117599
v 0.767011 2.643651 0.770405
v 1.112676 1.343765 -1.117599
v 0.767011 2.643651 -0.770405
v 0.000000 2.116104 -1.850192
v 0.000000 2.116104 -0.825115
v 0.043740 2.107403 -1.850192
v 0.043740 2.107403 -0.825115
v 0.080821 2.082627 -1.850192
v 0.080821 2.082627 -0.825115
v 0.105597 2.045546 -1.850192
v 0.105597 2.045546 -0.825115
v 0.114298 2.001806 -1.850192
v 0.114298 2.001806 -0.825115
v 0.105597 1.958066 -1.850192
v 0.105597 1.958066 -0.825115
v 0.080821 1.920985 -1.850192
v 0.080821 1.920985 -0.825115
v 0.043740 1.896208 -1.850192
v 0.043740 1.896209 -0.825115
v 0.000000 1.887508 -1.850192
v 0.000000 1.887508 -0.825115
v -0.043740 1.896208 -1.850192
v -0.043740 1.896209 -0.825115
v -0.080821 1.920985 -1.850192
v -0.080821 1.920985 -0.825115
v -0.105597 1.958066 -1.850192
v -0.105597 1.958066 -0.825115
v -0.114298 2.001806 -1.850192
v -0.114298 2.001806 -0.825115
v -0.105597 2.045546 -1.850192
v -0.105597 2.045546 -0.825115
v -0.080821 2.082627 -1.850192
v -0.080821 2.082627 -0.825115
v -0.043740 2.107403 -1.850192
v -0.043740 2.107403 -0.825115
v -0.844402 1.415953 1.208739
v -0.582079 2.571463 0.833231
v -0.844402 1.415953 -1.208739
v -0.582079 2.571463 -0.833231
v 0.844402 1.415953 1.208739
v 0.582079 2.571463 0.833231
v 0.844402 1.415953 -1.208739
v 0.582079 2.571463 -0.833231
vn 0.195100 0.980800 0.000000
vn 0.555600 0.831500 0.000000
vn 0.831500 0.555600 -0.000000
vn 0.980800 0.195100 0.000000
vn 0.980800 -0.195100 0.000000
vn 0.831500 -0.555600 0.000000
vn 0.555600 -0.831500 0.000000
vn 0.195100 -0.980800 0.000000
vn -0.195100 -0.980800 0.000000
vn -0.555600 -0.831500 0.000000
vn -0.831500 -0.555600 0.000000
vn -0.980800 -0.195100 0.000000
vn -0.980800 0.195100 0.000000
vn -0.831500 0.555600 0.000000
vn 0.000000 0.000000 1.000000
vn -0.195100 0.980800 0.000000
vn -0.555600 0.831500 -0.000000
vn 0.000000 0.000000 -1.000000
vn -0.966400 0.257000 0.000000
vn 0.000000 0.258000 -0.966100
vn 0.966400 0.257000 0.000000
vn 0.000000 0.258000 0.966100
vn 0.000000 -1.000000 0.000000
vn 0.000000 1.000000 0.000000
vn -0.975200 0.221400 0.000000
vn 0.000000 0.309100 -0.951000
vn 0.975200 0.221400 0.000000
vn 0.000000 0.309100 0.951000
s off
f 2//1 4//1 3//1
f 4//2 6//2 5//2
f 6//3 8//3 7//3
f 8//4 10//4 9//4
f 10//5 12//5 11//5
f 12//6 14//6 13//6
f 14//7 16//7 15//7
f 16//8 18//8 17//8
f 18//9 20//9 19//9
f 20//10 22//10 21//10
f 22//11 24//11 23//11
f 24//12 26//12 25//12
f 26//13 28//13 27//13
f 28//14 30//14 29//14
f 22//15 14//15 30//15
f 32//16 2//16 1//16
f 30//17 32//17 31//17
f 15//18 23//18 31//18
f 34//19 36//19 35//19
f 40//20 39//20 35//20
f 40//21 38//21 37//21
f 34//22 33//22 37//22
f 35//23 39//23 37//23
f 40//24 36//24 34//24
f 42//1 44//1 43//1
f 44//2 46//2 45//2
f 46//3 48//3 47//3
f 48//4 50//4 49//4
f 50//5 52//5 51//5
f 52//6 54//6 53//6
f 54//7 56//7 55//7
f 56//8 58//8 57//8
f 58//9 60//9 59//9
f 60//10 62//10 61//10
f 62//11 64//11 63//11
f 64//12 66//12 65//12
f 66//13 68//13 67//13
f 68//14 70//14 69//14
f 58//15 54//15 46//15
f 72//16 42//16 41//16
f 70//17 72//17 71//17
f 55//18 63//18 71//18
f 76//25 75//25 73//25
f 80//26 79//26 75//26
f 78//27 77//27 79//27
f 74//28 73//28 77//28
f 75//23 79//23 77//23
f 80//24 76//24 74//24
f 1//1 2//1 3//1
f 3//2 4//2 5//2
f 5//3 6//3 7//3
f 7//4 8//4 9//4
f 9//5 10//5 11//5
f 11//6 12//6 13//6
f 13//7 14//7 15//7
f 15//8 16//8 17//8
f 17//9 18//9 19//9
f 19//10 20//10 21//10
f 21//11 22//11 23//11
f 23//12 24//12 25//12
f 25//13 26//13 27//13
f 27//14 28//14 29//14
f 6//15 4//15 2//15
f 2//15 32//15 30//15
f 30//15 28//15 26//15
f 26//15 24//15 30//15
f 22//15 20//15 14//15
f 18//15 16//15 14//15
f 14//15 12//15 6//15
f 10//15 8//15 6//15
f 6//15 2//15 30//15
f 30//15 24//15 22//15
f 20//15 18//15 14//15
f 12//15 10//15 6//15
f 6//15 30//15 14//15
f 31//16 32//16 1//16
f 29//17 30//17 31//17
f 31//18 1//18 7//18
f 3//18 5//18 7//18
f 7//18 9//18 11//18
f 11//18 13//18 15//18
f 15//18 17//18 19//18
f 19//18 21//18 15//18
f 23//18 25//18 31//18
f 27//18 29//18 31//18
f 1//18 3//18 7//18
f 7//18 11//18 15//18
f 15//18 21//18 23//18
f 25//18 27//18 31//18
f 31//18 7//18 15//18
f 33//19 34//19 35//19
f 36//20 40//20 35//20
f 39//21 40//21 37//21
f 38//22 34//22 37//22
f 33//23 35//23 37//23
f 38//24 40//24 34//24
f 41//1 42//1 43//1
f 43//2 44//2 45//2
f 45//3 46//3 47//3
f 47//4 48//4 49//4
f 49//5 50//5 51//5
f 51//6 52//6 53//6
f 53//7 54//7 55//7
f 55//8 56//8 57//8
f 57//9 58//9 59//9
f 59//10 60//10 61//10
f 61//11 62//11 63//11
f 63//12 64//12 65//12
f 65//13 66//13 67//13
f 67//14 68//14 69//14
f 46//15 44//15 42//15
f 42//15 72//15 70//15
f 70//15 68//15 66//15
f 66//15 64//15 70//15
f 62//15 60//15 58//15
f 58//15 56//15 54//15
f 54//15 52//15 46//15
f 50//15 48//15 46//15
f 46//15 42//15 70//15
f 70//15 64//15 62//15
f 62//15 58//15 46//15
f 52//15 50//15 46//15
f 46//15 70//15 62//15
f 71//16 72//16 41//16
f 69//17 70//17 71//17
f 71//18 41//18 43//18
f 43//18 45//18 71//18
f 47//18 49//18 51//18
f 51//18 53//18 55//18
f 55//18 57//18 63//18
f 59//18 61//18 63//18
f 63//18 65//18 67//18
f 67//18 69//18 63//18
f 71//18 45//18 47//18
f 47//18 51//18 71//18
f 57//18 59//18 63//18
f 63//18 69//18 71//18
f 71//18 51//18 55//18
f 74//25 76//25 73//25
f 76//26 80//26 75//26
f 80//27 78//27 79//27
f 78//28 74//28 77//28
f 73//23 75//23 77//23
f 78//24 80//24 74//24
