# Blender v2.76 (sub 0) OBJ File: 'Towers.blend'
# www.blender.org
o Cube.004
v 0.476917 -0.441268 0.476917
v -0.476917 -0.441268 0.476917
v -0.476917 -0.441268 -0.476917
v -0.313404 1.466400 -0.313404
v -0.313404 1.466400 0.313404
v 0.313404 1.466400 0.313404
v 0.313404 1.466400 -0.313404
v 0.476917 -0.441268 -0.476917
vn 0.000000 -1.000000 -0.000000
vn 0.000000 1.000000 0.000000
vn 0.996300 0.085400 0.000000
vn 0.000000 0.085400 0.996300
vn -0.996300 0.085400 0.000000
vn 0.000000 0.085400 -0.996300
s 1
f 1//1 2//1 3//1
f 4//2 5//2 6//2
f 7//3 6//3 1//3
f 1//4 6//4 5//4
f 2//5 5//5 4//5
f 8//6 3//6 4//6
f 8//1 1//1 3//1
f 7//2 4//2 6//2
f 8//3 7//3 1//3
f 2//4 1//4 5//4
f 3//5 2//5 4//5
f 7//6 8//6 4//6
