# Blender v2.76 (sub 0) OBJ File: 'TowOff.blend'
# www.blender.org
v 0.000000 -0.034674 -1.712850
v -1.483371 -0.034674 -0.856425
v -1.483371 -0.034674 0.856425
v 0.000000 -0.034674 1.712850
v 1.483371 -0.034674 0.856425
v 1.483371 -0.034674 -0.856425
v -1.429981 0.441229 -0.825600
v 0.000000 0.441229 -1.651200
v -1.429981 0.441229 0.825600
v 0.000000 0.441229 1.651199
v 1.429981 0.441229 0.825600
v 1.429981 0.441229 -0.825600
v -1.395159 0.466288 -0.805496
v 0.000000 0.466288 -1.610991
v -1.395159 0.466288 0.805496
v 0.000000 0.466288 1.610991
v 1.395159 0.466288 0.805495
v 1.395159 0.466288 -0.805495
v -1.359391 0.589582 -0.784845
v 0.000000 0.589582 -1.569690
v -1.359391 0.589582 0.784845
v 0.000000 0.589582 1.569690
v 1.359391 0.589582 0.784845
v 1.359391 0.589582 -0.784845
v 1.465575 0.132313 -0.846150
v 1.447778 0.324359 -0.835875
v 1.447778 0.324359 0.835875
v 1.465575 0.132313 0.846150
v 0.000000 0.132313 1.692300
v 0.000000 0.324359 1.671750
v -1.447778 0.324359 0.835875
v -1.465575 0.132313 0.846150
v -1.465575 0.132313 -0.846150
v -1.447778 0.324359 -0.835875
v 0.000000 0.324359 -1.671750
v 0.000000 0.132313 -1.692300
v 1.430813 0.171403 -0.826080
v 1.413438 0.260211 -0.816048
v 1.413438 0.260211 0.816048
v 1.430813 0.171403 0.826080
v 0.000000 0.171403 1.652160
v 0.000000 0.260211 1.632097
v -1.413438 0.260211 0.816049
v -1.430812 0.171403 0.826080
v -1.430813 0.171403 -0.826080
v -1.413438 0.260211 -0.816049
v 0.000000 0.260211 -1.632097
v 0.000000 0.171403 -1.652160
v -1.320341 0.589582 -0.762299
v 0.000000 0.589582 -1.524598
v -1.320341 0.589582 0.762299
v 0.000000 0.589582 1.524598
v 1.320341 0.589582 0.762299
v 1.320341 0.589582 -0.762299
v -1.320341 0.573285 -0.762299
v 0.000000 0.573285 -1.524598
v -1.320341 0.573285 0.762299
v 0.000000 0.573285 1.524598
v 1.320341 0.573285 0.762299
v 1.320341 0.573285 -0.762299
v -1.236867 0.573285 -0.714105
v 0.000000 0.573285 -1.428211
v -1.236867 0.573285 0.714106
v 0.000000 0.573285 1.428211
v 1.236867 0.573285 0.714105
v 1.236867 0.573285 -0.714105
vt 0.329859 0.957230
vt 0.301945 0.908882
vt 0.274031 0.957230
vt 0.473288 0.918518
vt 0.473288 0.982982
vt 0.408824 0.982982
vt 0.473288 0.906321
vt 0.473288 0.970785
vt 0.408824 0.970785
vt 0.408824 0.906321
vt 0.334177 0.908882
vt 0.334177 0.973346
vt 0.269713 0.973346
vt 0.408824 0.918518
vt 0.269713 0.908882
vt 0.469222 0.902255
vt 0.469222 0.966719
vt 0.404759 0.966719
vt 0.473288 0.922584
vt 0.473288 0.987047
vt 0.408824 0.987047
vt 0.404759 0.902255
vt 0.408824 0.922584
vt 0.473035 0.962800
vt 0.445122 0.914452
vt 0.417208 0.962800
vt 0.301945 0.973346
vt 0.329859 0.924998
vt 0.274031 0.924998
vt 0.445122 0.978916
vt 0.473035 0.930568
vt 0.417208 0.930568
vn 0.000000 -1.000000 0.000000
vn -0.292100 0.811700 0.505800
vn 0.988600 0.150500 0.000000
vn -0.494300 0.150500 0.856200
vn -0.494300 0.150500 -0.856200
vn 0.494300 0.150500 -0.856200
vn 0.494300 0.150500 0.856200
vn -0.988600 0.150500 0.000000
vn -0.960400 0.278600 0.000000
vn -0.292100 0.811700 -0.505800
vn 0.292000 0.811700 -0.505800
vn 0.292100 0.811700 0.505800
vn -0.584100 0.811700 0.000000
vn 0.584100 0.811700 0.000000
vn 0.960400 0.278600 0.000000
vn -0.480200 0.278600 0.831700
vn -0.480200 0.278600 -0.831700
vn 0.480200 0.278600 -0.831700
vn 0.480200 0.278600 0.831700
vn 0.000000 1.000000 0.000000
vn -0.994400 0.106000 0.000000
vn -0.881600 -0.472000 0.000000
vn 0.497200 0.106000 0.861100
vn 0.881600 -0.472000 0.000000
vn 0.497200 0.106000 -0.861100
vn 0.373600 0.664500 -0.647100
vn -0.497200 0.106000 -0.861100
vn -0.440800 -0.472000 -0.763500
vn -0.497200 0.106000 0.861100
vn -0.747300 0.664500 0.000000
vn 0.994400 0.106000 0.000000
vn 0.747300 0.664500 0.000000
vn -0.981400 0.192000 0.000000
vn 0.490700 0.192000 0.849900
vn 0.490700 0.192000 -0.849900
vn -0.490700 0.192000 -0.849900
vn -0.490700 0.192000 0.849900
vn 0.981400 0.192000 0.000000
vn -0.373600 0.664500 0.647100
vn 0.440800 -0.472000 -0.763500
vn 0.373600 0.664500 0.647100
vn -0.440800 -0.472000 0.763500
vn -0.373600 0.664500 -0.647100
vn 0.440800 -0.472000 0.763500
vn -1.000000 0.000000 0.000000
vn 0.500000 0.000000 -0.866000
vn 0.500000 0.000000 0.866000
vn -0.500000 0.000000 0.866000
vn -0.500000 0.000000 -0.866000
vn 1.000000 0.000000 -0.000000
vn -0.292000 0.811700 -0.505800
vn 0.292100 0.811700 -0.505800
s off
f 6/1/1 4/2/1 2/3/1
f 10/4/2 16/5/2 15/6/2
f 26/7/3 12/8/3 11/9/3
f 31/10/4 30/7/4 10/8/4
f 34/7/5 7/8/5 8/9/5
f 26/10/6 35/7/6 8/8/6
f 27/7/7 11/8/7 10/9/7
f 34/10/8 31/7/8 9/8/8
f 15/11/9 21/12/9 19/13/9
f 8/14/10 7/4/10 13/5/10
f 8/4/11 14/5/11 18/6/11
f 11/4/12 17/5/12 16/6/12
f 9/4/13 15/5/13 13/6/13
f 12/4/14 18/5/14 17/6/14
f 17/15/15 18/11/15 24/12/15
f 15/15/16 16/11/16 22/12/16
f 13/11/17 19/12/17 20/13/17
f 14/11/18 20/12/18 24/13/18
f 16/15/19 17/11/19 23/12/19
f 24/11/20 54/12/20 53/13/20
f 3/16/21 32/17/21 33/18/21
f 34/19/22 46/20/22 43/21/22
f 5/16/23 28/17/23 29/18/23
f 27/19/24 39/20/24 38/21/24
f 1/16/25 36/17/25 25/18/25
f 36/16/26 48/17/26 37/18/26
f 2/16/27 33/17/27 36/18/27
f 35/19/28 47/20/28 46/21/28
f 4/16/29 29/17/29 32/18/29
f 33/22/30 32/16/30 44/17/30
f 5/22/31 6/16/31 25/17/31
f 25/16/32 37/17/32 40/18/32
f 44/11/33 43/12/33 46/13/33
f 41/15/34 40/11/34 39/12/34
f 37/15/35 48/11/35 47/12/35
f 45/11/36 46/12/36 47/13/36
f 41/11/37 42/12/37 43/13/37
f 37/11/38 38/12/38 39/13/38
f 29/16/39 41/17/39 44/18/39
f 26/19/40 38/20/40 47/21/40
f 28/16/41 40/17/41 41/18/41
f 30/23/42 31/19/42 43/20/42
f 33/16/43 45/17/43 48/18/43
f 30/19/44 42/20/44 39/21/44
f 54/11/45 60/12/45 59/13/45
f 22/11/20 52/12/20 51/13/20
f 19/11/20 49/12/20 50/13/20
f 20/11/20 50/12/20 54/13/20
f 22/15/20 23/11/20 53/12/20
f 21/11/20 51/12/20 49/13/20
f 56/12/20 62/12/20 66/13/20
f 52/11/46 58/12/46 57/13/46
f 49/11/47 55/12/47 56/13/47
f 50/11/48 56/12/48 60/13/48
f 53/11/49 59/12/49 58/13/49
f 51/11/50 57/12/50 55/13/50
f 63/24/20 65/25/20 62/26/20
f 59/12/20 65/12/20 64/13/20
f 57/12/20 63/12/20 61/13/20
f 60/12/20 66/12/20 65/13/20
f 57/13/20 58/12/20 64/12/20
f 56/13/20 55/12/20 61/12/20
f 2/3/1 1/27/1 6/1/1
f 6/1/1 5/28/1 4/2/1
f 4/2/1 3/29/1 2/3/1
f 9/14/2 10/4/2 15/6/2
f 27/10/3 26/7/3 11/9/3
f 9/9/4 31/10/4 10/8/4
f 35/10/5 34/7/5 8/9/5
f 12/9/6 26/10/6 8/8/6
f 30/10/7 27/7/7 10/9/7
f 7/9/8 34/10/8 9/8/8
f 13/15/9 15/11/9 19/13/9
f 14/6/51 8/14/51 13/5/51
f 12/14/52 8/4/52 18/6/52
f 10/14/12 11/4/12 16/6/12
f 7/14/13 9/4/13 13/6/13
f 11/14/14 12/4/14 17/6/14
f 23/13/15 17/15/15 24/12/15
f 21/13/16 15/15/16 22/12/16
f 14/15/17 13/11/17 20/13/17
f 18/15/18 14/11/18 24/13/18
f 22/13/19 16/15/19 23/12/19
f 23/15/20 24/11/20 53/13/20
f 2/22/21 3/16/21 33/18/21
f 31/23/22 34/19/22 43/21/22
f 4/22/23 5/16/23 29/18/23
f 26/23/24 27/19/24 38/21/24
f 6/22/25 1/16/25 25/18/25
f 25/22/26 36/16/26 37/18/26
f 1/22/27 2/16/27 36/18/27
f 34/23/28 35/19/28 46/21/28
f 3/22/29 4/16/29 32/18/29
f 45/18/30 33/22/30 44/17/30
f 28/18/31 5/22/31 25/17/31
f 28/22/32 25/16/32 40/18/32
f 45/15/33 44/11/33 46/13/33
f 42/13/34 41/15/34 39/12/34
f 38/13/35 37/15/35 47/12/35
f 48/15/36 45/11/36 47/13/36
f 44/15/37 41/11/37 43/13/37
f 40/15/38 37/11/38 39/13/38
f 32/22/39 29/16/39 44/18/39
f 35/23/40 26/19/40 47/21/40
f 29/22/41 28/16/41 41/18/41
f 42/21/42 30/23/42 43/20/42
f 36/22/43 33/16/43 48/18/43
f 27/23/44 30/19/44 39/21/44
f 53/15/45 54/11/45 59/13/45
f 21/15/20 22/11/20 51/13/20
f 20/15/20 19/11/20 50/13/20
f 24/15/20 20/11/20 54/13/20
f 52/13/20 22/15/20 53/12/20
f 19/15/20 21/11/20 49/13/20
f 60/13/20 56/12/20 66/13/20
f 51/15/46 52/11/46 57/13/46
f 50/15/47 49/11/47 56/13/47
f 54/15/48 50/11/48 60/13/48
f 52/15/49 53/11/49 58/13/49
f 49/15/50 51/11/50 55/13/50
f 62/26/20 61/30/20 63/24/20
f 63/24/20 64/31/20 65/25/20
f 65/25/20 66/32/20 62/26/20
f 58/13/20 59/12/20 64/13/20
f 55/13/20 57/12/20 61/13/20
f 59/13/20 60/12/20 65/13/20
f 63/13/20 57/13/20 64/12/20
f 62/13/20 56/13/20 61/12/20
