# Blender v2.72 (sub 0) OBJ File: 'FlatLowPoly.blend'
# www.blender.org
mtllib TropTree2.mtl
o TropTree2_Cylinder.006
v 1.739210 8.766851 -1.134761
v 2.700857 9.808384 2.680832
v -0.685961 7.914398 2.553100
v -1.299036 8.642506 -1.195517
v 0.471596 11.146371 -3.166326
v 3.637038 10.264405 -1.464880
v -0.078078 10.767626 4.754754
v -4.176532 10.116307 1.915574
v -3.275477 11.219302 -0.660916
v 0.174673 13.152540 -2.307547
v 1.457637 12.849533 1.918557
v -2.471747 12.047309 1.757030
v 0.276342 5.867034 -0.432864
v 2.767983 7.821032 -0.293048
v 0.488529 5.550971 -0.357633
v 2.911633 7.607057 -0.242117
v 0.588041 5.402741 -0.013097
v 2.979002 7.506706 -0.008867
v 0.499944 5.533967 0.341301
v 2.919361 7.595546 0.231060
v 0.290576 5.845832 0.438692
v 2.777619 7.806677 0.296994
v 0.117597 6.103495 0.205739
v 2.660512 7.981116 0.139285
v 0.111262 6.112931 -0.182140
v 2.656224 7.987504 -0.123308
v 4.381918 9.867077 -0.125696
v 4.443533 9.775297 -0.103850
v 4.472430 9.732255 -0.003803
v 4.446848 9.770359 0.099108
v 4.386052 9.860920 0.127388
v 4.335822 9.935741 0.059743
v 4.333982 9.938481 -0.052890
v -0.000000 0.000000 -0.902450
v -0.366428 10.184747 0.339940
v 0.705564 0.000000 -0.562669
v -0.172008 10.184747 0.433568
v 0.879824 0.000000 0.200814
v -0.123991 10.184747 0.643947
v 0.391558 0.000000 0.813080
v -0.258533 10.184747 0.812657
v -0.391559 0.000000 0.813080
v -0.474322 10.184747 0.812657
v -0.879824 0.000000 0.200814
v -0.608864 10.184747 0.643947
v -0.705564 0.000000 -0.562668
v -0.560847 10.184747 0.433568
v 0.268463 3.876032 -0.634420
v 0.110429 7.223544 -0.217353
v 0.465755 7.223543 -0.046236
v 0.764473 3.876031 -0.395554
v 0.553514 7.223543 0.338258
v 0.886977 3.876031 0.141172
v 0.307620 7.223543 0.646600
v 0.543728 3.876031 0.571593
v -0.086763 7.223543 0.646599
v -0.006801 3.876031 0.571593
v -0.332657 7.223543 0.338259
v -0.350050 3.876031 0.141172
v -0.244898 7.223543 -0.046236
v -0.227546 3.876031 -0.395554
v 0.340326 6.991627 -0.015147
v -1.094637 8.329895 -2.166480
v 0.337712 7.145333 0.249540
v -1.095925 8.405627 -2.036067
v 0.120391 7.150610 0.465026
v -1.203001 8.408227 -1.929896
v -0.147991 7.003484 0.469047
v -1.335235 8.335736 -1.927915
v -0.265336 6.814744 0.258575
v -1.393051 8.242743 -2.031616
v -0.143281 6.726515 -0.007901
v -1.332914 8.199272 -2.162910
v 0.126264 6.805236 -0.129718
v -1.200107 8.238059 -2.222930
v -1.916795 9.963402 -3.402119
v -1.917272 9.991423 -3.353866
v -1.956891 9.992385 -3.314581
v -2.005818 9.965563 -3.313848
v -2.027211 9.931155 -3.352218
v -2.004959 9.915071 -3.400799
v -1.955820 9.929421 -3.423006
v -0.020851 4.929189 -0.324097
v -1.570122 6.251773 2.285279
v 0.335898 5.138902 -0.380299
v -1.364599 6.372588 2.252900
v 0.500605 5.146101 -0.136492
v -1.169307 6.376736 2.393358
v 0.566570 4.945365 0.223733
v -1.131305 6.261093 2.600883
v 0.484119 4.687854 0.429120
v -1.279209 6.112740 2.719206
v 0.098013 4.567476 0.325007
v -1.501645 6.043391 2.659227
v -0.126720 4.674881 -0.010206
v -1.631113 6.105266 2.466111
v -2.553457 8.555976 3.768501
v -2.381894 8.656829 3.741473
v -2.218872 8.660291 3.858721
v -2.187150 8.563756 4.031955
v -2.310614 8.439918 4.130726
v -2.496294 8.382027 4.080658
v -2.604369 8.433679 3.919452
v -0.777842 8.483118 -4.072262
v -0.213730 9.794243 -2.101585
v -2.593193 8.624566 -1.889025
v -3.189874 8.569794 -4.203709
v -1.978020 9.749475 -5.860785
v 0.206662 10.162925 -4.091368
v -2.480984 9.858041 -0.752073
v -4.499630 9.525687 -2.464038
v -4.080626 10.233790 -4.861152
v -2.010066 11.049737 -4.812067
v -0.945951 10.905303 -2.409407
v -3.475677 10.759142 -2.615695
v 5.305356 8.374726 -0.589535
v 5.805507 9.639452 1.157701
v 3.695835 8.489934 1.346160
v 3.166808 8.448105 -0.706078
v 4.241258 9.610654 -2.175269
v 6.178233 10.042569 -0.606474
v 3.795322 9.755744 2.354201
v 2.005556 9.395730 0.836344
v 2.377053 10.099785 -1.288978
v 4.212846 10.935678 -1.245458
v 5.156308 10.800889 0.884780
v 2.913410 10.667829 0.701882
v -1.365017 7.379717 3.292467
v -0.898515 8.390162 4.922152
v -2.866252 7.504055 5.097932
v -3.359687 7.453901 3.183765
v -2.357524 8.345276 1.813419
v -0.550865 8.640021 3.276668
v -2.773459 8.399808 6.038153
v -4.442812 8.172128 4.622415
v -4.096309 8.702676 2.640081
v -2.384025 9.296261 2.680673
v -1.504038 9.181678 4.667593
v -3.596037 9.063313 4.497000
vn 0.155800 -0.128500 -0.979400
vn 0.588100 -0.667400 -0.457000
vn 0.603800 -0.686900 0.404400
vn 0.191500 -0.173100 0.966100
vn -0.343000 0.492800 0.799700
vn -0.484300 0.443700 -0.754000
vn -0.371700 0.528600 -0.763200
vn -0.593200 0.804500 0.029300
vn -0.830300 -0.557400 0.000000
vn 0.830300 0.557400 0.000000
vn -0.758400 0.651200 0.028200
vn -0.447300 0.415600 0.791900
vn 0.260000 -0.124500 0.957600
vn 0.767100 -0.515600 0.381600
vn 0.749200 -0.501800 -0.432300
vn 0.213100 -0.088500 -0.973000
vn 0.422000 0.232800 -0.876200
vn 0.946700 0.238900 -0.216100
vn 0.776800 0.113800 0.619400
vn 0.000000 -0.056000 0.998400
vn -0.774600 -0.136000 0.617700
vn 0.000000 1.000000 -0.000000
vn -0.431700 0.099200 -0.896500
vn -0.972700 -0.067800 -0.222000
vn 0.000000 -1.000000 0.000000
vn 0.433700 0.032200 -0.900500
vn 0.430100 0.131600 -0.893100
vn 0.974900 -0.005200 -0.222500
vn 0.969100 0.109600 -0.221200
vn 0.781800 0.008200 0.623500
vn 0.781200 0.041100 0.623000
vn 0.000000 0.062200 0.998100
vn 0.000000 -0.022400 0.999700
vn -0.776600 0.115700 0.619300
vn -0.781400 -0.032600 0.623200
vn -0.432000 0.092000 -0.897200
vn -0.432100 0.091400 -0.897200
vn -0.966800 0.128700 -0.220700
vn -0.974800 0.018200 -0.222500
vn 0.840000 0.472700 -0.266200
vn 0.317000 0.900500 0.297700
vn -0.382600 0.714000 0.586400
vn -0.886900 0.038000 0.460400
vn -0.705700 -0.702700 -0.090600
vn 0.618100 -0.252100 -0.744600
vn 0.661700 -0.353500 -0.661200
vn -0.011100 -0.828400 -0.560000
vn 0.433100 -0.777600 0.455800
vn -0.433100 0.777600 -0.455900
vn -0.166200 -0.618900 -0.767700
vn -0.842100 -0.490900 -0.223200
vn -0.884700 0.031500 0.465100
vn -0.288900 0.548400 0.784700
vn 0.518600 0.689200 0.506100
vn 0.926700 0.328900 -0.181800
vn -0.472100 0.641000 -0.605200
vn 0.200600 0.930500 -0.306400
vn 0.761600 0.615300 0.203400
vn 0.733400 -0.217400 0.644100
vn 0.096600 -0.810000 0.578400
vn -0.905200 -0.124700 -0.406300
vn -0.882900 -0.171900 -0.437000
vn -0.570600 -0.812000 0.122400
vn 0.453000 -0.846000 -0.281100
vn -0.377900 0.777600 0.502500
vn -0.770200 -0.536900 0.344300
vn -0.059600 -0.536800 0.841600
vn 0.692700 -0.123900 0.710500
vn 0.919200 0.390700 0.049400
vn 0.449600 0.619500 -0.643400
vn -0.362600 0.390100 -0.846400
vn -0.433100 0.777600 -0.455800
vn -0.884700 0.031400 0.465100
vn 0.314300 0.918600 -0.239400
vn 0.828100 0.162700 0.536400
vn 0.380000 -0.648100 -0.660000
vn 0.455700 -0.739500 -0.495500
vn 0.457600 -0.710600 -0.534500
vn 0.476200 -0.754900 -0.451000
vn 0.481500 -0.868800 0.115800
vn 0.624400 -0.779100 0.055300
vn 0.044000 -0.979300 -0.197400
vn 0.041400 -0.635900 -0.770700
vn 0.281000 -0.532200 -0.798600
vn 0.874800 0.418700 0.243600
vn 0.320000 -0.620600 0.715900
vn -0.521400 -0.849600 -0.079800
vn -0.541700 -0.248900 -0.802900
vn 0.517900 0.400300 -0.756000
vn 0.631300 0.421300 0.651100
vn -0.444100 -0.486100 0.752600
vn -0.746500 -0.476100 -0.464900
vn -0.532300 0.265300 -0.803900
vn 0.654400 0.742000 -0.145500
vn -0.192100 0.837800 0.511000
vn -0.538400 0.529200 0.655800
vn -0.748600 0.662700 0.021900
vn -0.526400 0.842600 -0.113600
vn -0.203500 0.970200 0.131300
vn 0.431500 -0.803100 0.410800
vn 0.859800 -0.502900 0.088500
vn -0.037700 -0.998700 0.033400
vn 0.002200 -0.815400 -0.578900
vn 0.625400 -0.374300 -0.684700
vn 0.768000 0.580900 0.269900
vn 0.376900 -0.646100 0.663700
vn -0.457100 -0.878600 0.138600
vn -0.460700 -0.528400 -0.713100
vn 0.450900 0.567000 -0.689300
vn 0.452600 0.502400 0.736700
vn -0.472900 -0.573600 0.668900
vn -0.788100 -0.539200 -0.297000
vn -0.221900 0.608800 -0.761600
vn 0.403100 0.906700 -0.124000
vn -0.089200 0.877200 0.471700
vn -0.587700 0.559700 0.584300
vn -0.764800 0.641800 0.055900
vn -0.361600 0.924700 -0.118900
vn -0.064600 0.994000 0.088400
vn 0.461300 -0.776200 0.429800
vn 0.883400 -0.461500 0.081200
vn -0.035900 -0.998900 0.029600
vn 0.006700 -0.786500 -0.617500
vn 0.636500 -0.340100 -0.692200
vn 0.805300 0.517900 0.288500
vn 0.386200 -0.593000 0.706500
vn -0.501200 -0.852800 0.146600
vn -0.476000 -0.486200 -0.732800
vn 0.467500 0.514500 -0.718900
vn 0.477000 0.444700 0.758100
vn -0.489600 -0.519300 0.700400
vn -0.812200 -0.496500 -0.306400
vn -0.233800 0.555100 -0.798200
vn 0.447500 0.882900 -0.142300
vn -0.092700 0.849900 0.518700
vn -0.615500 0.503400 0.606400
vn -0.810300 0.583700 0.051700
vn -0.407000 0.901400 -0.147600
vn -0.066500 0.993500 0.092300
vn 0.406400 -0.824100 0.394600
vn 0.836700 -0.539300 0.094900
vn -0.039100 -0.998600 0.036200
vn -0.001400 -0.837800 -0.546000
vn 0.614400 -0.405400 -0.676900
vn 0.728300 0.637800 0.250700
vn 0.366900 -0.691300 0.622400
vn -0.420200 -0.897800 0.131800
vn -0.446100 -0.565200 -0.693900
vn 0.434100 0.613600 -0.659600
vn 0.427200 0.556100 0.712900
vn -0.455600 -0.621600 0.637200
vn -0.764700 -0.576500 -0.287900
vn -0.210100 0.655600 -0.725300
vn 0.366200 0.924100 -0.108900
vn -0.086000 0.897600 0.432400
vn -0.559200 0.610300 0.561200
vn -0.719500 0.692000 0.059400
vn -0.324000 0.941200 -0.095500
vn -0.063200 0.994300 0.085300
usemtl PalmBark3
s off
f 14//1 16//1 15//1
f 16//2 18//2 17//2
f 17//3 18//3 20//3
f 19//4 20//4 22//4
f 21//5 22//5 24//5
f 14//6 26//6 33//6
f 26//7 14//7 13//7
f 23//8 24//8 26//8
f 19//9 21//9 17//9
f 30//10 29//10 31//10
f 24//11 32//11 33//11
f 22//12 31//12 32//12
f 20//13 30//13 31//13
f 18//14 29//14 30//14
f 18//15 16//15 28//15
f 16//16 14//16 27//16
f 35//17 37//17 50//17
f 50//18 37//18 39//18
f 52//19 39//19 41//19
f 54//20 41//20 43//20
f 56//21 43//21 45//21
f 41//22 39//22 43//22
f 47//23 35//23 49//23
f 45//24 47//24 60//24
f 36//25 38//25 40//25
f 34//26 48//26 51//26
f 49//27 50//27 51//27
f 36//28 51//28 53//28
f 51//29 50//29 52//29
f 53//30 55//30 40//30
f 53//31 52//31 54//31
f 55//32 57//32 42//32
f 55//33 54//33 56//33
f 57//34 59//34 44//34
f 56//35 58//35 59//35
f 46//36 61//36 48//36
f 60//37 49//37 48//37
f 44//38 59//38 61//38
f 58//39 60//39 61//39
f 63//40 65//40 64//40
f 65//41 67//41 66//41
f 66//42 67//42 69//42
f 68//43 69//43 71//43
f 70//44 71//44 73//44
f 75//45 82//45 76//45
f 75//46 63//46 62//46
f 72//47 73//47 75//47
f 72//48 74//48 70//48
f 76//49 82//49 81//49
f 73//50 81//50 82//50
f 71//51 80//51 81//51
f 69//52 79//52 80//52
f 69//53 67//53 78//53
f 67//54 65//54 77//54
f 65//55 63//55 76//55
f 84//56 86//56 85//56
f 85//57 86//57 88//57
f 87//58 88//58 90//58
f 89//59 90//59 92//59
f 91//60 92//60 94//60
f 96//61 103//61 97//61
f 96//62 84//62 83//62
f 94//63 96//63 95//63
f 83//64 85//64 87//64
f 102//65 101//65 103//65
f 96//66 94//66 102//66
f 94//67 92//67 101//67
f 92//68 90//68 100//68
f 90//69 88//69 99//69
f 86//70 98//70 99//70
f 84//71 97//71 98//71
f 13//1 14//1 15//1
f 15//2 16//2 17//2
f 19//3 17//3 20//3
f 21//4 19//4 22//4
f 23//5 21//5 24//5
f 27//6 14//6 33//6
f 25//7 26//7 13//7
f 25//8 23//8 26//8
f 13//9 15//9 25//9
f 23//9 15//9 21//9
f 28//10 27//10 29//10
f 26//11 24//11 33//11
f 21//9 15//9 17//9
f 15//9 23//9 25//9
f 27//10 33//10 32//10
f 24//12 22//12 32//12
f 29//10 27//10 32//10
f 31//10 29//10 32//10
f 22//13 20//13 31//13
f 20//14 18//14 30//14
f 29//15 18//15 28//15
f 28//16 16//16 27//16
f 49//17 35//17 50//17
f 52//18 50//18 39//18
f 54//19 52//19 41//19
f 56//20 54//20 43//20
f 58//21 56//21 45//21
f 37//22 35//22 39//22
f 60//23 47//23 49//23
f 35//22 47//22 45//22
f 39//22 35//22 43//22
f 58//24 45//24 60//24
f 35//22 45//22 43//22
f 34//25 36//25 46//25
f 44//25 36//25 42//25
f 36//26 34//26 51//26
f 48//27 49//27 51//27
f 36//25 44//25 46//25
f 36//25 40//25 42//25
f 38//28 36//28 53//28
f 53//29 51//29 52//29
f 38//30 53//30 40//30
f 55//31 53//31 54//31
f 40//32 55//32 42//32
f 57//33 55//33 56//33
f 42//34 57//34 44//34
f 57//35 56//35 59//35
f 34//36 46//36 48//36
f 61//37 60//37 48//37
f 46//38 44//38 61//38
f 59//39 58//39 61//39
f 62//40 63//40 64//40
f 64//41 65//41 66//41
f 68//42 66//42 69//42
f 70//43 68//43 71//43
f 72//44 70//44 73//44
f 63//45 75//45 76//45
f 74//46 75//46 62//46
f 74//47 72//47 75//47
f 62//48 64//48 74//48
f 79//72 78//72 77//72
f 64//48 66//48 68//48
f 74//48 64//48 70//48
f 77//72 76//72 79//72
f 64//48 68//48 70//48
f 75//50 73//50 82//50
f 81//72 80//72 76//72
f 76//72 80//72 79//72
f 73//51 71//51 81//51
f 71//73 69//73 80//73
f 79//53 69//53 78//53
f 78//54 67//54 77//54
f 77//55 65//55 76//55
f 83//56 84//56 85//56
f 87//74 85//74 88//74
f 89//58 87//58 90//58
f 91//75 89//75 92//75
f 93//60 91//60 94//60
f 84//61 96//61 97//61
f 95//62 96//62 83//62
f 93//63 94//63 95//63
f 100//65 97//65 101//65
f 89//76 91//76 93//76
f 89//77 95//77 87//77
f 89//78 93//78 95//78
f 100//65 99//65 98//65
f 95//79 83//79 87//79
f 103//66 96//66 102//66
f 100//65 98//65 97//65
f 101//65 97//65 103//65
f 102//67 94//67 101//67
f 101//68 92//68 100//68
f 100//69 90//69 99//69
f 88//70 86//70 99//70
f 86//71 84//71 98//71
usemtl PalmLeaf2
f 1//80 2//80 3//80
f 2//81 1//81 6//81
f 1//82 3//82 4//82
f 1//83 4//83 5//83
f 1//84 5//84 6//84
f 2//85 6//85 11//85
f 3//86 2//86 7//86
f 4//87 3//87 8//87
f 5//88 4//88 9//88
f 6//89 5//89 10//89
f 2//90 11//90 7//90
f 3//91 7//91 8//91
f 4//92 8//92 9//92
f 5//93 9//93 10//93
f 6//94 10//94 11//94
f 7//95 11//95 12//95
f 8//96 7//96 12//96
f 9//97 8//97 12//97
f 10//98 9//98 12//98
f 11//99 10//99 12//99
f 104//100 105//100 106//100
f 105//101 104//101 109//101
f 104//102 106//102 107//102
f 104//103 107//103 108//103
f 104//104 108//104 109//104
f 105//105 109//105 114//105
f 106//106 105//106 110//106
f 107//107 106//107 111//107
f 108//108 107//108 112//108
f 109//109 108//109 113//109
f 105//110 114//110 110//110
f 106//111 110//111 111//111
f 107//112 111//112 112//112
f 108//113 112//113 113//113
f 109//114 113//114 114//114
f 110//115 114//115 115//115
f 111//116 110//116 115//116
f 112//117 111//117 115//117
f 113//118 112//118 115//118
f 114//119 113//119 115//119
f 116//120 117//120 118//120
f 117//121 116//121 121//121
f 116//122 118//122 119//122
f 116//123 119//123 120//123
f 116//124 120//124 121//124
f 117//125 121//125 126//125
f 118//126 117//126 122//126
f 119//127 118//127 123//127
f 120//128 119//128 124//128
f 121//129 120//129 125//129
f 117//130 126//130 122//130
f 118//131 122//131 123//131
f 119//132 123//132 124//132
f 120//133 124//133 125//133
f 121//134 125//134 126//134
f 122//135 126//135 127//135
f 123//136 122//136 127//136
f 124//137 123//137 127//137
f 125//138 124//138 127//138
f 126//139 125//139 127//139
f 128//140 129//140 130//140
f 129//141 128//141 133//141
f 128//142 130//142 131//142
f 128//143 131//143 132//143
f 128//144 132//144 133//144
f 129//145 133//145 138//145
f 130//146 129//146 134//146
f 131//147 130//147 135//147
f 132//148 131//148 136//148
f 133//149 132//149 137//149
f 129//150 138//150 134//150
f 130//151 134//151 135//151
f 131//152 135//152 136//152
f 132//153 136//153 137//153
f 133//154 137//154 138//154
f 134//155 138//155 139//155
f 135//156 134//156 139//156
f 136//157 135//157 139//157
f 137//158 136//158 139//158
f 138//159 137//159 139//159
