# Blender v2.72 (sub 0) OBJ File: 'FlatLowPoly.blend'
# www.blender.org
mtllib TropTree3.mtl
o TropTree3_Cylinder.010
v 0.000000 0.000000 -0.704223
v -0.000000 4.365902 -0.704238
v 0.550584 0.000000 -0.439076
v 0.381610 4.365902 -0.520464
v 0.686567 0.000000 0.156704
v 0.475859 4.365902 -0.107529
v 0.305551 0.000000 0.634483
v 0.211777 4.365902 0.223620
v -0.305551 0.000000 0.634483
v -0.211777 4.365902 0.223620
v -0.686567 0.000000 0.156704
v -0.475859 4.365902 -0.107529
v -0.550584 0.000000 -0.439076
v -0.381610 4.365902 -0.520464
v -0.000000 7.143721 -0.638214
v 0.287598 7.143721 -0.499714
v 0.358628 7.143721 -0.188508
v 0.159604 7.143721 0.061060
v -0.159605 7.143721 0.061060
v -0.358629 7.143721 -0.188508
v -0.287599 7.143721 -0.499714
v -0.000000 10.666914 -0.281880
v 0.174433 10.666914 -0.197877
v 0.217514 10.666914 -0.009125
v 0.096803 10.666914 0.142243
v -0.096804 10.666914 0.142243
v -0.217515 10.666914 -0.009125
v -0.174434 10.666914 -0.197877
v -0.685257 9.171911 -2.356893
v 1.960905 8.936231 1.380113
v -2.112641 10.145187 2.506525
v -4.297223 10.995540 -0.741058
v -1.526433 11.603483 -3.927765
v 3.039351 10.551291 -3.371600
v 1.776796 10.826159 4.226800
v -2.048490 12.071738 3.065035
v -1.920798 13.430859 -0.660652
v 2.805930 12.888925 -1.578438
v 4.701964 11.393474 0.698985
v 1.468276 12.750995 2.578052
v -1.677104 7.665413 0.007965
v 0.590205 7.525804 -1.387732
v 1.112192 8.254708 0.997598
v -0.840485 8.723189 2.172773
v -2.600596 9.078708 0.483044
v -2.159952 8.474429 -2.168836
v 2.217499 8.627767 -1.219275
v 1.426261 9.351083 0.959522
v -0.720984 10.142166 0.793128
v -1.095508 9.823843 -1.987678
v 0.252195 8.958276 -3.013943
v 1.261774 9.729143 -1.073985
vn 0.433900 -0.000000 -0.901000
vn 0.974400 0.033600 -0.222400
vn 0.779600 0.075300 0.621700
vn 0.000000 0.093700 0.995600
vn -0.779600 0.075300 0.621700
vn -0.433800 0.021400 -0.900800
vn -0.433900 -0.000000 -0.901000
vn -0.974400 0.033600 -0.222400
vn 0.000000 -1.000000 0.000000
vn -0.432100 0.090700 -0.897300
vn -0.974300 0.034600 -0.222400
vn -0.780800 0.051100 0.622700
vn 0.000000 0.058400 0.998300
vn 0.780800 0.051100 0.622700
vn 0.974300 0.034600 -0.222400
vn 0.433800 0.021400 -0.900800
vn 0.000000 1.000000 0.000000
vn -0.973700 0.050300 -0.222200
vn -0.781800 -0.000400 0.623500
vn 0.000000 -0.023000 0.999700
vn 0.781800 -0.000400 0.623500
vn 0.973700 0.050300 -0.222200
vn 0.432100 0.090700 -0.897300
vn -0.252400 -0.960400 0.118100
vn 0.274600 -0.927700 -0.253000
vn -0.430700 -0.900900 0.053900
vn -0.558100 -0.577800 -0.595500
vn -0.024600 -0.548500 -0.835800
vn 0.648400 -0.753500 -0.108900
vn -0.095900 -0.832100 0.546200
vn -0.838100 -0.126000 0.530800
vn -0.637900 0.636800 -0.433200
vn 0.232400 0.606500 -0.760400
vn 0.656300 -0.608400 0.446300
vn -0.354900 -0.249400 0.901000
vn -0.701400 0.677000 0.222900
vn 0.005400 0.873000 -0.487600
vn 0.816100 0.400800 -0.416300
vn 0.577100 0.582700 0.572200
vn -0.019900 0.648600 0.760900
vn -0.133600 0.932500 0.335600
vn 0.127800 0.989000 0.073900
vn 0.467500 0.865600 0.179200
vn 0.106700 -0.957200 0.269100
vn -0.236700 -0.926700 -0.291900
vn 0.039700 -0.903700 0.426200
vn -0.621200 -0.582200 0.524600
vn -0.839400 -0.543200 -0.015700
vn -0.076100 -0.756000 -0.650100
vn 0.546200 -0.827000 0.133200
vn 0.492700 -0.111200 0.863000
vn -0.462500 0.637800 0.615900
vn -0.739700 0.619000 -0.264000
vn 0.477300 -0.607800 -0.634600
vn 0.884400 -0.239400 0.400700
vn 0.193700 0.675500 0.711500
vn -0.487900 0.872200 -0.034100
vn -0.373700 0.406700 -0.833700
vn 0.596500 0.589500 -0.544700
vn 0.757800 0.649700 0.059500
vn 0.332000 0.931900 0.146400
vn 0.088100 0.988200 -0.125000
vn 0.210600 0.865900 -0.453700
usemtl PalmBark3
s off
f 2//1 4//1 3//1
f 4//2 6//2 5//2
f 6//3 8//3 7//3
f 7//4 8//4 10//4
f 9//5 10//5 12//5
f 14//6 21//6 15//6
f 13//7 14//7 2//7
f 11//8 12//8 14//8
f 3//9 5//9 7//9
f 15//10 21//10 28//10
f 12//11 20//11 21//11
f 10//12 19//12 20//12
f 8//13 18//13 19//13
f 8//14 6//14 17//14
f 6//15 4//15 16//15
f 4//16 2//16 15//16
f 22//17 28//17 27//17
f 21//18 20//18 27//18
f 20//19 19//19 26//19
f 18//20 25//20 26//20
f 17//21 24//21 25//21
f 16//22 23//22 24//22
f 15//23 22//23 23//23
f 1//1 2//1 3//1
f 3//2 4//2 5//2
f 5//3 6//3 7//3
f 9//4 7//4 10//4
f 11//5 9//5 12//5
f 2//6 14//6 15//6
f 1//7 13//7 2//7
f 13//8 11//8 14//8
f 1//9 3//9 13//9
f 7//9 9//9 11//9
f 22//10 15//10 28//10
f 14//11 12//11 21//11
f 3//9 7//9 11//9
f 3//9 11//9 13//9
f 12//12 10//12 20//12
f 10//13 8//13 19//13
f 18//14 8//14 17//14
f 17//15 6//15 16//15
f 16//16 4//16 15//16
f 25//17 24//17 23//17
f 27//17 26//17 25//17
f 28//18 21//18 27//18
f 25//17 23//17 22//17
f 22//17 27//17 25//17
f 27//19 20//19 26//19
f 19//20 18//20 26//20
f 18//21 17//21 25//21
f 17//22 16//22 24//22
f 16//23 15//23 23//23
usemtl PalmLeaf2
f 29//24 30//24 31//24
f 30//25 29//25 34//25
f 29//26 31//26 32//26
f 29//27 32//27 33//27
f 29//28 33//28 34//28
f 30//29 34//29 39//29
f 31//30 30//30 35//30
f 32//31 31//31 36//31
f 33//32 32//32 37//32
f 34//33 33//33 38//33
f 30//34 39//34 35//34
f 31//35 35//35 36//35
f 32//36 36//36 37//36
f 33//37 37//37 38//37
f 34//38 38//38 39//38
f 35//39 39//39 40//39
f 36//40 35//40 40//40
f 37//41 36//41 40//41
f 38//42 37//42 40//42
f 39//43 38//43 40//43
f 41//44 42//44 43//44
f 42//45 41//45 46//45
f 41//46 43//46 44//46
f 41//47 44//47 45//47
f 41//48 45//48 46//48
f 42//49 46//49 51//49
f 43//50 42//50 47//50
f 44//51 43//51 48//51
f 45//52 44//52 49//52
f 46//53 45//53 50//53
f 42//54 51//54 47//54
f 43//55 47//55 48//55
f 44//56 48//56 49//56
f 45//57 49//57 50//57
f 46//58 50//58 51//58
f 47//59 51//59 52//59
f 48//60 47//60 52//60
f 49//61 48//61 52//61
f 50//62 49//62 52//62
f 51//63 50//63 52//63
